<?xml version="1.0" encoding="UTF-8" standalone="no"?>
<!-- Created with Inkscape (http://www.inkscape.org/) -->

<svg
   version="1.1"
   id="svg625"
   width="256"
   height="256"
   viewBox="0 0 256 256"
   sodipodi:docname="Arabic-script-template.svg"
   inkscape:version="1.2.1 (9c6d41e, 2022-07-14)"
   inkscape:export-filename="inkscape stuff/أبجدية/kaf.svg"
   inkscape:export-xdpi="96"
   inkscape:export-ydpi="96"
   xmlns:inkscape="http://www.inkscape.org/namespaces/inkscape"
   xmlns:sodipodi="http://sodipodi.sourceforge.net/DTD/sodipodi-0.dtd"
   xmlns="http://www.w3.org/2000/svg"
   xmlns:svg="http://www.w3.org/2000/svg">
  <defs
     id="defs629" />
  <sodipodi:namedview
     id="namedview627"
     pagecolor="#ffffff"
     bordercolor="#000000"
     borderopacity="0.25"
     inkscape:showpageshadow="2"
     inkscape:pageopacity="0.0"
     inkscape:pagecheckerboard="0"
     inkscape:deskcolor="#d1d1d1"
     showgrid="false"
     inkscape:zoom="0.6287352"
     inkscape:cx="298.21776"
     inkscape:cy="466.01495"
     inkscape:window-width="1512"
     inkscape:window-height="916"
     inkscape:window-x="0"
     inkscape:window-y="38"
     inkscape:window-maximized="1"
     inkscape:current-layer="g631" />
  <g
     inkscape:groupmode="layer"
     id="layer1"
     inkscape:label="ا"
     style="display:none"
     transform="translate(-354,-284.66666)">
    <path
       style="display:inline;fill:#000000;stroke-width:0.666667"
       d="m 477.00483,418.11167 v -39.83333 l 4.34107,-5.33334 c 2.38753,-2.93333 4.6362,-5.43333 4.99686,-5.55556 0.42514,-0.14404 0.65574,13.5769 0.65554,39.00001 l -2.7e-4,39.22222 -4.39193,6.16665 c -2.41554,3.39167 -4.6654,6.16667 -4.99967,6.16667 -0.3592,0 -0.60653,-16.2923 -0.60473,-39.83332 z"
       id="path1132" />
  </g>
  <g
     inkscape:groupmode="layer"
     id="layer2"
     inkscape:label="ب"
     style="display:none"
     transform="translate(-354,-284.66666)">
    <g
       id="g1645"
       transform="translate(-273.21033,300.90801)">
      <path
         style="fill:#000000;stroke-width:0.666667"
         d="m 735.40732,117.84881 c -12.856,-2.46535 -19.1956,-6.46702 -21.64807,-13.66465 -2.16847,-6.364055 -0.60867,-13.346375 4.60167,-20.598705 2.2972,-3.19756 4.32246,-4.70283 3.52246,-2.61808 -1.5418,4.01785 -2.60026,9.56818 -2.31213,12.12437 0.6618,5.87164 4.8968,9.457535 13.9172,11.784205 7.99953,2.06336 31.26167,2.05931 44.84893,-0.008 9.45954,-1.43894 12.40327,-2.54493 12.40327,-4.65984 0,-0.656355 -1.2,-3.183005 -2.66667,-5.614775 -1.46666,-2.43177 -2.66906,-4.81283 -2.67193,-5.29125 -0.009,-1.5436 4.98067,-11.85735 5.73993,-11.8637 0.8538,-0.007 4.45413,7.61835 5.66279,11.99386 0.45574,1.65 0.8176,5.7248 0.80414,9.05512 -0.0587,14.473875 -2.77274,16.362035 -28.20159,19.619615 -13.4614,1.72448 -24.0816,1.64384 -34,-0.25818 z"
         id="path1130" />
      <path
         style="fill:#000000;stroke-width:0.666667"
         d="m 751.51198,142.48354 c -3.42573,-1.9664 -6.52553,-3.87218 -6.8884,-4.23506 -0.81806,-0.818 4.04834,-10.1216 5.30294,-10.13826 1.18993,-0.0158 14.14746,7.477 14.14746,8.18088 0,0.84632 -5.41253,9.81125 -5.90933,9.78777 -0.2332,-0.011 -3.22687,-1.62892 -6.65267,-3.59533 z"
         id="path1124" />
    </g>
  </g>
  <g
     inkscape:groupmode="layer"
     id="layer3"
     inkscape:label="ت"
     style="display:none"
     transform="translate(-354,-284.66666)">
    <g
       id="g1652"
       transform="translate(-139.87496,324.47421)"
       style="display:inline">
      <path
         style="fill:#000000;stroke-width:0.666667"
         d="m 610.40732,69.996485 c -2.93334,-1.82805 -5.74821,-3.56209 -6.25528,-3.85341 -0.7343,-0.42187 -0.39509,-1.49698 1.66667,-5.28245 1.42373,-2.61403 2.87511,-4.75479 3.22528,-4.75725 0.35017,-0.003 3.23944,1.64554 6.4206,3.66221 3.18117,2.01667 5.94795,3.66667 6.14839,3.66667 0.20046,0 1.46961,-1.81927 2.82035,-4.04282 1.76332,-2.90274 2.74744,-3.93094 3.48975,-3.6461 1.58415,0.6079 12.0714,7.02094 12.42989,7.60098 0.43961,0.7113 -4.85653,9.42127 -5.72865,9.42127 -0.39002,0 -3.39725,-1.70411 -6.68274,-3.78691 -3.81257,-2.41694 -6.13532,-3.52247 -6.4206,-3.05594 -0.24585,0.40204 -1.347,2.2502 -2.447,4.10702 -1.1,1.85682 -2.3,3.35678 -2.66666,3.33326 -0.36667,-0.0235 -3.06667,-1.53847 -6,-3.36653 z"
         id="path1138" />
      <path
         style="display:inline;fill:#000000;stroke-width:0.666667"
         d="m 603.09278,120.02312 c -2.18966,-0.31893 -6.38758,-1.38126 -9.32872,-2.36076 -4.53633,-1.51073 -5.90839,-2.34588 -9.04487,-5.5055 -7.09238,-7.1447 -7.1383,-16.092375 -0.13381,-26.076895 3.64449,-5.19501 4.35091,-4.98651 2.7331,0.80667 -2.60214,9.31798 -0.61557,14.391645 7.01647,17.919885 5.85277,2.7057 14.74974,3.57126 31.73903,3.08781 21.3989,-0.60893 31.33334,-2.39502 31.33334,-5.63336 0,-0.68543 -1.2,-3.235865 -2.66667,-5.667625 -1.46667,-2.43177 -2.66667,-4.86254 -2.66667,-5.40172 0,-1.72492 4.8273,-11.75937 5.6571,-11.75937 1.41404,0 5.53954,10.01295 6.31882,15.33629 0.85684,5.853195 0.003,13.743215 -1.83694,16.963695 -3.13792,5.49402 -20.67858,9.10532 -43.47231,8.95016 -6.41667,-0.0437 -13.45821,-0.34035 -15.64787,-0.65928 z"
         id="path1128" />
    </g>
  </g>
  <g
     inkscape:groupmode="layer"
     id="layer4"
     inkscape:label="ث"
     style="display:none"
     transform="translate(-354,-284.66666)">
    <g
       id="g1657"
       transform="translate(-6.5416308,330.94026)">
      <path
         style="fill:#000000;stroke-width:0.666667"
         d="m 477.07397,57.338575 c -3.66666,-2.22888 -6.81426,-4.19221 -6.99466,-4.36296 -0.5789,-0.54796 4.87178,-10.21003 5.75981,-10.21003 1.50261,0 14.30154,7.50622 14.09759,8.26784 -0.34854,1.3015 -5.46492,10.3995 -5.83636,10.37824 -0.19784,-0.0113 -3.35971,-1.84421 -7.02638,-4.07309 z"
         id="path1140" />
      <path
         style="fill:#000000;stroke-width:0.666667"
         d="m 474.74064,76.021845 c -8.18547,-4.9037 -7.90349,-4.41017 -5.35569,-9.37341 3.27614,-6.38207 2.86655,-6.2902 9.68902,-2.17312 3.3,1.99142 6.31062,3.6214 6.69025,3.62218 0.37963,6.7e-4 1.64949,-1.94382 2.8219,-4.32135 l 2.13166,-4.32278 3.51143,2.08927 c 1.93128,1.14909 5.23376,3.10714 7.33882,4.35122 l 3.82738,2.26196 -2.31078,4.58862 c -1.27094,2.52374 -2.55008,4.7365 -2.84254,4.91724 -0.29246,0.18076 -3.30138,-1.32846 -6.6865,-3.35381 -3.38511,-2.02535 -6.59204,-3.51465 -7.12652,-3.30955 -0.53446,0.2051 -1.88733,2.18664 -3.00636,4.40342 -1.11903,2.21678 -2.25528,4.027 -2.525,4.02269 -0.26972,-0.004 -3.0404,-1.53547 -6.15707,-3.40258 z"
         id="path1136" />
      <path
         style="fill:#000000;stroke-width:0.666667"
         d="m 469.75944,120.02312 c -2.18966,-0.31893 -6.38758,-1.38126 -9.32871,-2.36076 -4.53633,-1.51073 -5.90839,-2.34588 -9.04487,-5.5055 -7.09239,-7.1447 -7.13831,-16.092375 -0.13381,-26.076895 3.61955,-5.15948 4.35102,-4.99402 2.79209,0.63157 -1.63436,5.89777 -1.64428,8.77281 -0.0411,11.91394 1.64645,3.225935 3.00224,4.394715 7.42235,6.398565 5.4355,2.46417 14.94777,3.33605 31.31525,2.87029 21.3989,-0.60893 31.33334,-2.39502 31.33334,-5.63336 0,-0.68543 -1.2,-3.235865 -2.66667,-5.667625 -1.46667,-2.43177 -2.66667,-4.86254 -2.66667,-5.40172 3e-5,-1.72492 4.82732,-11.75937 5.65713,-11.75937 1.41403,0 5.53954,10.01295 6.31881,15.33629 0.85684,5.853195 0.003,13.743215 -1.83693,16.963695 -3.13793,5.49402 -20.67859,9.10532 -43.47231,8.95016 -6.41667,-0.0437 -13.45821,-0.34035 -15.64787,-0.65928 z"
         id="path1126" />
    </g>
  </g>
  <g
     inkscape:groupmode="layer"
     id="layer5"
     inkscape:label="ج"
     style="display:none"
     transform="translate(-354,-284.66666)">
    <g
       id="g1661"
       transform="translate(127.89359,313.60997)">
      <path
         style="fill:#000000;stroke-width:0.666667"
         d="m 351.07397,104.09036 c -3.79274,-2.2741 -6.6298,-4.408775 -6.58116,-4.951835 0.047,-0.525 1.18787,-2.92576 2.53521,-5.33502 2.28013,-4.07726 2.5511,-4.32708 3.91449,-3.60901 5.27614,2.77883 13.13146,7.38391 13.13146,7.69815 0,0.76382 -5.44286,10.206065 -5.88003,10.200635 -0.24931,-0.003 -3.4533,-1.8044 -7.11997,-4.00292 z"
         id="path1134" />
      <path
         style="fill:#000000;stroke-width:0.666667"
         d="m 345.05063,145.46048 c -13.5312,-2.89962 -23.8134,-16.71431 -25.65436,-34.46802 -1.45371,-14.019095 1.754,-24.873805 11.54266,-39.059755 2.21366,-3.20808 3.83178,-6.02594 3.59582,-6.26191 -1.15424,-1.15423 -7.72578,-0.31454 -12.46078,1.59222 -2.75,1.10741 -5.07429,1.94922 -5.16509,1.8707 -0.0908,-0.0785 1.19477,-2.6651 2.85682,-5.74795 3.51577,-6.52119 6.28186,-9.62137 9.54556,-10.69849 2.95137,-0.97404 12.63559,-0.39598 19.42938,1.15977 7.05099,1.61464 17.59413,1.45611 23.66455,-0.35582 7.32888,-2.18758 7.14701,-2.42982 4.93668,6.5755 l -1.39878,5.69886 -6.10122,0.15855 c -19.29346,0.50136 -35.01788,9.80042 -40.71159,24.0759 -2.93663,7.36281 -3.79435,15.840255 -2.3169,22.899395 2.54381,12.15405 13.83127,18.58869 32.59393,18.58079 7.79918,-0.003 20.04396,-1.62214 26.51079,-3.50493 2.66427,-0.77569 5.06427,-1.18329 5.33333,-0.90576 0.7543,0.77801 -6.14174,6.64284 -10.7349,9.12963 -13.86426,7.50627 -27.29248,11.01282 -35.4659,9.26132 z"
         id="path1122" />
    </g>
  </g>
  <g
     inkscape:groupmode="layer"
     id="layer6"
     inkscape:label="ح"
     style="display:none"
     transform="translate(-354,-284.66666)">
    <path
       style="fill:#000000;stroke-width:0.666667"
       d="m 472.94421,459.07045 c -13.5312,-2.89962 -23.81339,-16.71431 -25.65436,-34.46802 -1.4537,-14.0191 1.75401,-24.87381 11.54267,-39.05976 2.21366,-3.20808 3.83177,-6.02594 3.59581,-6.26191 -1.15424,-1.15423 -7.72578,-0.31454 -12.46077,1.59222 -2.75,1.10741 -5.07429,1.94922 -5.16509,1.8707 -0.0908,-0.0785 1.19476,-2.6651 2.85682,-5.74795 3.51577,-6.52119 6.28186,-9.62137 9.54556,-10.69849 2.95137,-0.97404 12.63558,-0.39598 19.42938,1.15977 7.05098,1.61464 17.59413,1.45611 23.66454,-0.35582 7.32889,-2.18758 7.14702,-2.42982 4.93668,6.5755 l -1.39878,5.69886 -6.10122,0.15855 c -19.29346,0.50136 -35.01787,9.80042 -40.71158,24.0759 -2.93664,7.36281 -3.79436,15.84026 -2.3169,22.8994 2.5438,12.15405 13.83126,18.58869 32.59392,18.58079 7.79919,-0.003 20.04397,-1.62214 26.5108,-3.50493 2.66426,-0.77569 5.06426,-1.18329 5.33333,-0.90576 0.75429,0.77801 -6.14175,6.64284 -10.73491,9.12963 -13.86426,7.50627 -27.29248,11.01282 -35.4659,9.26132 z"
       id="path1120" />
  </g>
  <g
     inkscape:groupmode="layer"
     id="layer7"
     inkscape:label="خ"
     style="display:none"
     transform="translate(-354,-284.66666)">
    <g
       id="g1665"
       transform="translate(394.56026,328.9985)">
      <path
         style="fill:#000000;stroke-width:0.666667"
         d="m 78.740645,35.646935 c -3.48333,-2.05668 -6.47948,-3.86749 -6.6581,-4.02404 -0.48969,-0.42916 4.88406,-10.190642 5.61,-10.190642 0.88107,0 13.57843,7.240052 14.05789,8.015832 0.51245,0.82917 -4.93172,9.99114 -5.9191,9.96121 -0.41654,-0.0126 -3.60735,-1.70569 -7.09069,-3.76236 z"
         id="path1142" />
      <path
         style="fill:#000000;stroke-width:0.666667"
         d="m 78.383965,145.46048 c -13.5312,-2.89962 -23.81339,-16.71431 -25.65435,-34.46802 -1.45371,-14.019095 1.754,-24.873805 11.54266,-39.059755 2.21366,-3.20808 3.83508,-6.02264 3.60315,-6.25456 -1.12248,-1.12249 -7.89799,-0.24727 -12.54656,1.62069 -2.70685,1.0877 -4.99584,1.9134 -5.08665,1.83488 -0.0908,-0.0785 1.19477,-2.6651 2.85683,-5.74795 3.51577,-6.52119 6.28185,-9.62137 9.54556,-10.69849 2.95137,-0.97404 12.63558,-0.39598 19.42938,1.15977 7.05098,1.61464 17.59413,1.45611 23.664535,-0.35582 7.32889,-2.18758 7.14701,-2.42982 4.93668,6.5755 l -1.39878,5.69886 -6.10122,0.15855 c -19.293455,0.50136 -35.017865,9.80042 -40.711585,24.0759 -2.93662,7.36281 -3.79435,15.840255 -2.31689,22.899395 2.5438,12.15405 13.83126,18.58869 32.59392,18.58079 7.799185,-0.003 20.043965,-1.62214 26.510785,-3.50493 2.66427,-0.77569 5.06427,-1.18329 5.33334,-0.90576 0.75429,0.77801 -6.14175,6.64284 -10.73491,9.12963 -13.864255,7.50627 -27.292475,11.01282 -35.465895,9.26132 z"
         id="path1118" />
    </g>
  </g>
  <g
     inkscape:groupmode="layer"
     id="layer8"
     inkscape:label="د"
     style="display:none"
     transform="translate(-354,-284.66666)">
    <path
       style="fill:#000000;stroke-width:0.666667"
       d="m 468.27123,442.32008 c -6.3542,-0.78354 -7.67613,-2.0629 -8.36093,-8.09174 -0.476,-4.19039 1.09386,-12.551 2.84686,-15.16146 l 1.1698,-1.74198 0.5542,5 c 0.3048,2.75 0.85234,5.3 1.21674,5.66666 1.04186,1.04837 22.98626,0.69801 26.52353,-0.42347 4.74453,-1.50423 4.78493,-1.94721 1.15953,-12.72046 -1.76253,-5.2375 -4.10986,-11.34265 -5.21626,-13.56699 l -2.0116,-4.04426 3.6438,-7.26358 3.64386,-7.26357 1.0008,1.9745 c 2.57867,5.08748 8.0588,27.9052 9.22614,38.41465 1.83253,16.4991 0.0701,17.69538 -28.71334,19.48893 -1.65,0.10281 -4.6574,-0.0175 -6.68313,-0.26723 z"
       id="path1082" />
  </g>
  <g
     inkscape:groupmode="layer"
     id="layer9"
     inkscape:label="ذ"
     style="display:none"
     transform="translate(-354,-284.66666)">
    <g
       id="g1669"
       transform="translate(-277.78628,141.56269)">
      <path
         style="fill:#000000;stroke-width:0.666667"
         d="m 763.40732,240.36027 c -3.48334,-2.05438 -6.44387,-3.83912 -6.57887,-3.96608 -0.26327,-0.24745 4.3426,-8.91855 5.23673,-9.8588 0.77127,-0.81108 14.661,7.0059 14.62394,8.23018 -0.0473,1.57019 -4.862,8.96717 -5.9608,9.15822 -0.5432,0.0945 -3.83767,-1.50913 -7.321,-3.56352 z"
         id="path1090" />
      <path
         style="fill:#000000;stroke-width:0.666667"
         d="m 746.05752,315.42742 c -6.3542,-0.78354 -7.67614,-2.0629 -8.36094,-8.09174 -0.476,-4.19039 1.09387,-12.551 2.84687,-15.16146 l 1.1698,-1.74198 0.5542,5 c 0.3048,2.75 0.85233,5.3 1.21673,5.66666 1.04187,1.04837 22.98627,0.69801 26.52354,-0.42347 4.74453,-1.50423 4.78493,-1.94721 1.15953,-12.72046 -1.76253,-5.2375 -4.10987,-11.34265 -5.21627,-13.56699 l -2.0116,-4.04426 3.6438,-7.26358 3.64387,-7.26357 1.0008,1.9745 c 2.57867,5.08748 8.0588,27.9052 9.22613,38.41465 1.83254,16.4991 0.0701,17.69538 -28.71333,19.48893 -1.65,0.10281 -4.6574,-0.0175 -6.68313,-0.26723 z"
         id="path1080" />
    </g>
  </g>
  <g
     inkscape:groupmode="layer"
     id="layer10"
     inkscape:label="ر"
     style="display:none"
     transform="translate(-354,-284.66666)">
    <path
       style="fill:#000000;stroke-width:0.666667"
       d="m 473.43906,444.75618 c -5.81064,-0.9782 -13.49952,-6.49966 -18.79499,-13.49684 -2.12959,-2.81394 -1.96491,-3.76741 0.38903,-2.25247 2.71313,1.7461 13.30077,4.43728 17.45716,4.43728 5.30282,0 12.01535,-2.09118 16.82335,-5.24104 4.85924,-3.18343 7.32275,-5.75415 11.23865,-11.7277 2.42744,-3.70296 3.03869,-5.21697 3.03869,-7.52655 0,-4.76862 -2.96822,-9.30404 -9.57992,-14.63803 l -2.57992,-2.08135 2.72243,-5.88461 c 1.49733,-3.23654 2.99678,-5.97606 3.33211,-6.08784 1.05203,-0.35068 6.52174,5.63593 8.73922,9.56509 4.25498,7.5394 5.76933,18.6108 3.71942,27.19252 -1.43628,6.01281 -4.1247,10.82882 -8.82826,15.81484 -8.94577,9.48298 -18.28554,13.50772 -27.67697,11.9267 z"
       id="path1072" />
  </g>
  <g
     inkscape:groupmode="layer"
     id="layer11"
     inkscape:label="ز"
     style="display:none"
     transform="translate(-354,-284.66666)">
    <g
       id="g1673"
       transform="translate(-5.1496913,118.52175)">
      <path
         style="fill:#000000;stroke-width:0.666667"
         d="m 487.27219,258.21626 c -3.55764,-2.10761 -6.66814,-4.03172 -6.91222,-4.2758 -0.39552,-0.39552 3.74904,-8.71266 4.99944,-10.03267 0.54898,-0.57953 14.71456,7.30212 14.71456,8.1871 0,0.86694 -5.39588,10.00703 -5.89096,9.97871 -0.2433,-0.0139 -3.35317,-1.74973 -6.91082,-3.85734 z"
         id="path1086" />
      <path
         style="fill:#000000;stroke-width:0.666667"
         d="m 478.58875,344.0776 c -5.81064,-0.9782 -13.49952,-6.49966 -18.79498,-13.49684 -2.12959,-2.81394 -1.96491,-3.76741 0.38903,-2.25247 2.71311,1.7461 13.30075,4.43728 17.45715,4.43728 5.30282,0 12.01534,-2.09118 16.82334,-5.24104 4.85924,-3.18343 7.32276,-5.75415 11.23866,-11.7277 2.42744,-3.70296 3.03869,-5.21697 3.03869,-7.52655 0,-4.76862 -2.96823,-9.30404 -9.57992,-14.63803 l -2.57992,-2.08135 2.72243,-5.88461 c 1.49732,-3.23654 2.99678,-5.97606 3.3321,-6.08784 1.05204,-0.35068 6.52175,5.63593 8.73923,9.56509 4.25497,7.5394 5.76933,18.6108 3.71941,27.19252 -1.43628,6.01281 -4.1247,10.82882 -8.82825,15.81484 -8.94577,9.48298 -18.28554,13.50772 -27.67697,11.9267 z"
         id="path1070" />
    </g>
  </g>
  <g
     inkscape:groupmode="layer"
     id="layer12"
     inkscape:label="س"
     style="display:none"
     transform="translate(-354,-284.66666)">
    <path
       style="fill:#000000;stroke-width:0.666667"
       d="m 441.51524,441.42752 c -7.78926,-1.7867 -11.46415,-4.36105 -13.6313,-9.54906 -1.6497,-3.94926 -1.35451,-11.6667 0.67845,-17.7372 2.7391,-8.17905 10.0859,-21.20672 11.28377,-20.00885 0.21446,0.21446 -0.19546,1.40273 -0.91094,2.64061 -1.48295,2.56574 -4.37604,11.54586 -5.06464,15.72059 -0.25754,1.56139 -0.11322,4.4851 0.32578,6.59971 1.05027,5.05914 5.38822,9.61899 10.33734,10.86611 9.39532,2.36751 20.22794,1.02269 30.48683,-3.78479 7.86537,-3.68583 8.49656,-4.4284 8.48679,-9.98426 -0.0122,-6.95673 -1.91531,-12.84112 -5.81015,-17.96522 -1.06015,-1.39473 -1.42938,-2.45976 -1.06786,-3.08014 1.0479,-1.79824 7.88715,-9.70943 8.42774,-9.74866 0.65801,-0.0477 3.83831,6.92328 5.45664,11.96068 0.64789,2.01667 1.44154,4.00134 1.76367,4.41038 0.85944,1.09129 5.85463,1.61082 8.89491,0.92513 3.56965,-0.80509 4.34297,-2.10832 4.34297,-7.31903 v -4.39536 l 3.52096,-3.47722 c 1.93653,-1.91247 3.76891,-3.47723 4.07195,-3.47723 0.6381,0 0.13043,14.27924 -0.58555,16.46977 -0.40108,1.22709 -0.16615,1.55732 1.42279,2 2.82402,0.78678 12.14055,0.4398 13.26579,-0.49406 1.55298,-1.28887 1.25828,-6.76367 -0.48327,-8.97768 l -1.45399,-1.84846 4.62066,-4.2152 c 2.54136,-2.31835 4.98994,-4.22701 5.44129,-4.24145 1.46644,-0.0469 1.84603,3.41409 1.84603,16.83139 0,10.97851 -0.16772,13.3051 -1,13.87132 -0.62024,0.42198 -4.92415,0.57329 -11.33333,0.39845 -8.34866,-0.22775 -11.10584,-0.55551 -14.35543,-1.70649 -3.99618,-1.41542 -4.03831,-1.41634 -6.53602,-0.14293 -1.38265,0.70491 -4.7477,1.49099 -7.4779,1.74683 l -4.96398,0.46516 v 2.48186 c 0,3.92699 -3.47773,10.05338 -8.23104,14.49987 -10.25248,9.59071 -26.88728,13.67899 -41.76896,10.26543 z"
       id="path1078" />
  </g>
  <g
     inkscape:groupmode="layer"
     id="layer13"
     inkscape:label="ش"
     style="display:none"
     transform="translate(-354,-284.66666)">
    <g
       id="g1678"
       transform="translate(261.44127,123.13263)">
      <path
         style="fill:#000000;stroke-width:0.666667"
         d="m 240.40731,253.34651 c -2.93334,-1.81715 -5.76642,-3.56067 -6.29576,-3.8745 -0.79778,-0.47298 -0.58266,-1.29496 1.25761,-4.80518 1.22101,-2.32902 2.44463,-4.48512 2.71915,-4.79132 0.54929,-0.61269 2.70158,0.38238 9.48038,4.38307 l 4.49473,2.65268 -2.49473,4.72381 c -1.37209,2.5981 -2.79472,4.78941 -3.16138,4.86958 -0.36667,0.0802 -3.06667,-1.341 -6,-3.15814 z"
         id="path1088" />
      <path
         style="fill:#000000;stroke-width:0.666667"
         d="m 236.97024,269.60711 -6.10373,-3.79143 2.27878,-4.52505 c 1.25333,-2.48878 2.65001,-4.52153 3.10373,-4.51722 0.45373,0.004 3.22495,1.46784 6.15829,3.25228 3.21884,1.95814 5.6146,3.02067 6.04278,2.68002 0.3902,-0.31044 1.42142,-2.0845 2.29158,-3.94235 1.15851,-2.47345 1.86107,-3.27193 2.62388,-2.98215 2.40926,0.91528 11.51756,6.57992 11.81146,7.3458 0.1758,0.45812 -0.60698,2.66855 -1.7395,4.91206 l -2.05913,4.07912 -1.95045,-1.00862 c -1.07275,-0.55474 -3.69124,-2.0583 -5.81887,-3.34126 -2.12763,-1.28295 -4.2391,-2.33342 -4.69215,-2.33436 -0.45306,-9.4e-4 -1.73238,1.79829 -2.84294,3.99829 -1.11055,2.2 -2.23987,3.99242 -2.5096,3.98315 -0.26972,-0.009 -3.23708,-1.72299 -6.59413,-3.80828 z"
         id="path1084" />
      <path
         style="fill:#000000;stroke-width:0.666667"
         d="m 180.07397,338.16938 c -7.78925,-1.7867 -11.46414,-4.36105 -13.6313,-9.54906 -1.6497,-3.94926 -1.3545,-11.6667 0.67846,-17.7372 2.7391,-8.17905 10.0859,-21.20672 11.28376,-20.00885 0.21446,0.21446 -0.19546,1.40273 -0.91093,2.64061 -1.48295,2.56574 -4.37605,11.54586 -5.06464,15.72059 -0.25754,1.56139 -0.11322,4.4851 0.32577,6.59971 1.05028,5.05914 5.38823,9.61899 10.33734,10.86611 9.39533,2.36751 20.22794,1.02269 30.48684,-3.78479 7.86536,-3.68583 8.49656,-4.4284 8.48679,-9.98426 -0.0122,-6.95673 -1.91531,-12.84112 -5.81015,-17.96522 -1.06015,-1.39473 -1.42938,-2.45976 -1.06786,-3.08014 1.0479,-1.79824 7.88715,-9.70943 8.42774,-9.74866 0.65801,-0.0477 3.8383,6.92328 5.45664,11.96068 0.64788,2.01667 1.44154,4.00134 1.76367,4.41038 0.85944,1.09129 5.85463,1.61082 8.89491,0.92513 3.56965,-0.80509 4.34296,-2.10832 4.34296,-7.31903 v -4.39536 l 3.52097,-3.47722 c 1.93653,-1.91247 3.76891,-3.47723 4.07195,-3.47723 0.6381,0 0.13043,14.27924 -0.58555,16.46977 -0.40108,1.22709 -0.16615,1.55732 1.42279,2 2.82402,0.78678 12.14054,0.4398 13.26578,-0.49406 1.55299,-1.28887 1.25828,-6.76367 -0.48326,-8.97768 l -1.454,-1.84846 4.62066,-4.2152 c 2.54137,-2.31835 4.98995,-4.22701 5.4413,-4.24145 1.46644,-0.0469 1.84603,3.41409 1.84603,16.83139 0,10.97851 -0.16773,13.3051 -1,13.87132 -0.62024,0.42198 -4.92415,0.57329 -11.33333,0.39845 -8.34866,-0.22775 -11.10584,-0.55551 -14.35544,-1.70649 -3.99617,-1.41542 -4.0383,-1.41634 -6.53601,-0.14293 -1.38265,0.70491 -4.74771,1.49099 -7.4779,1.74683 l -4.96399,0.46516 v 2.48186 c 0,3.92699 -3.47772,10.05338 -8.23103,14.49987 -10.25249,9.59071 -26.88729,13.67899 -41.76897,10.26543 z"
         id="path1076" />
    </g>
  </g>
  <g
     inkscape:groupmode="layer"
     id="layer14"
     inkscape:label="ص"
     style="display:none"
     transform="translate(-354,-284.66666)">
    <path
       style="fill:#000000;stroke-width:0.666667"
       d="m 430.85309,443.92745 c -5.86763,-1.42491 -7.64209,-1.97669 -9.79471,-3.04574 -2.8514,-1.41608 -5.63686,-4.79601 -6.59255,-7.99955 -0.94101,-3.15431 -0.90939,-9.87169 0.0661,-14.03434 1.13776,-4.85527 4.9719,-13.29921 8.49147,-18.7008 2.92072,-4.48252 5.0928,-6.23172 3.20491,-2.58095 -2.06852,4.00008 -4.29613,10.79526 -5.08637,15.51566 -1.15398,6.89313 0.15153,11.37253 4.40592,15.11739 7.27916,6.40738 23.29454,5.97551 37.49498,-1.01108 2.67102,-1.31414 5.44602,-3.13893 6.16667,-4.05509 2.83781,-3.6077 0.87215,-15.37368 -3.70458,-22.17466 -1.27516,-1.89489 -2.31848,-3.596 -2.31848,-3.78024 0,-0.69117 8.22939,-9.87271 9.02147,-10.06527 1.29256,-0.31421 4.08979,6.50403 6.7149,16.36757 0.36197,1.36007 4.51016,0.95114 7.73266,-0.76228 1.65052,-0.87759 7.23383,-4.90558 12.40737,-8.9511 14.69083,-11.4877 21.93815,-14.3856 29.1236,-11.64533 5.62486,2.14512 13.15592,6.91894 16.81915,10.66141 4.50667,4.60414 5.94026,8.90992 4.88394,14.66888 -0.91874,5.00884 -2.47279,7.06926 -5.77494,7.65667 -1.42715,0.25387 -16.76982,0.47887 -34.09482,0.5 l -31.49999,0.0384 v 2.57709 c 0,3.97566 -4.05404,11.45026 -8.15702,15.03946 -4.39325,3.8431 -11.4291,7.36361 -18.17632,9.09484 -5.12341,1.31458 -18.36938,2.2888 -21.33333,1.56904 z m 109.16666,-39.23467 c 0.64167,-0.28696 1.16667,-0.91781 1.16667,-1.40188 0,-1.46012 -4.66831,-4.85467 -10.53349,-7.65939 -7.47382,-3.57398 -9.45396,-3.81493 -14.79984,-1.80094 -8.2114,3.09356 -19.33333,9.17202 -19.33333,10.56625 0,0.27448 0.975,0.63485 2.16666,0.80082 3.60052,0.50146 40.07943,0.0559 41.33333,-0.50486 z"
       id="path1074" />
  </g>
  <g
     inkscape:groupmode="layer"
     id="layer15"
     inkscape:label="ض"
     style="display:none"
     transform="translate(-354,-284.66666)">
    <g
       id="g1682"
       transform="translate(-403.53734,-76.156738)">
      <path
         style="fill:#000000;stroke-width:0.666667"
         d="m 919.85397,453.99823 c -3.2376,-1.8708 -6.0328,-3.78233 -6.2114,-4.24784 -0.33073,-0.86191 3.37507,-7.99865 4.5212,-8.70698 0.34607,-0.21388 3.59274,1.28908 7.2148,3.33992 l 6.5856,3.72879 -2.698,4.66006 c -1.48386,2.56303 -2.8842,4.65273 -3.11173,4.64378 -0.2276,-0.009 -3.0628,-1.54693 -6.30047,-3.41773 z"
         id="path1042" />
      <path
         style="fill:#000000;stroke-width:0.666667"
         d="m 834.40731,536.37932 c -0.73334,-0.17808 -2.68334,-0.65418 -4.33334,-1.058 -4.3828,-1.07264 -8.46906,-3.6174 -10.3186,-6.42594 -3.0246,-4.59306 -3.28146,-13.36222 -0.6212,-21.21163 2.401,-7.0846 9.46654,-19.58485 11.06994,-19.58485 0.31393,0 0.1242,0.86357 -0.4216,1.91905 -2.06854,4.00008 -4.29614,10.79526 -5.0864,15.51566 -1.15394,6.89313 0.15153,11.37253 4.40593,15.11739 3.76073,3.31035 7.9132,4.4571 15.97193,4.4109 9.55214,-0.0547 24.19294,-5.03165 27.62054,-9.3891 2.908,-3.69696 1.00153,-15.37225 -3.6354,-22.26263 -1.27514,-1.89489 -2.31847,-3.596 -2.31847,-3.78024 0,-0.69117 8.2294,-9.87272 9.02147,-10.06527 1.29253,-0.31421 4.0898,6.50403 6.71493,16.36757 0.36193,1.36007 4.51013,0.95114 7.7326,-0.76228 1.65053,-0.87759 7.23387,-4.90558 12.4074,-8.9511 14.6908,-11.4877 21.93813,-14.3856 29.1236,-11.64534 5.62487,2.14512 13.15593,6.91895 16.81913,10.66142 4.50667,4.60414 5.94027,8.90992 4.88394,14.66888 -0.91874,5.00884 -2.47274,7.06926 -5.77494,7.65667 -1.42713,0.25387 -16.7698,0.47887 -34.0948,0.5 l -31.5,0.0384 v 2.57709 c 0,3.97566 -4.05406,11.45026 -8.157,15.03945 -4.39326,3.84311 -11.42913,7.36362 -18.17633,9.09484 -5.1234,1.31459 -18.3694,2.28881 -21.33333,1.56904 z m 109.16666,-39.23466 c 0.64167,-0.28696 1.16667,-0.91781 1.16667,-1.40188 0,-1.46012 -4.66833,-4.85467 -10.53347,-7.65939 -7.47386,-3.57398 -9.454,-3.81493 -14.79986,-1.80094 -8.2114,3.09356 -19.33334,9.17202 -19.33334,10.56625 0,0.27448 0.975,0.63485 2.16667,0.80082 3.60053,0.50146 40.07947,0.0559 41.33333,-0.50486 z"
         id="path1030" />
    </g>
  </g>
  <g
     inkscape:groupmode="layer"
     id="layer16"
     inkscape:label="ط"
     style="display:none"
     transform="translate(-354,-284.66666)">
    <path
       style="fill:#000000;stroke-width:0.666667"
       d="m 445.3326,457.65005 c -0.6452,-1.04387 -3.66587,-10.13816 -3.66587,-11.03661 0,-0.57117 2.46447,-0.88679 8.5,-1.08856 6.8232,-0.22811 9.12467,-0.56505 11.66666,-1.70801 l 3.16666,-1.42385 0.0107,-25.20415 c 0.01,-23.14293 -0.10727,-25.81281 -1.43368,-32.64663 l -1.44446,-7.44247 3.93366,-5.02684 c 2.16354,-2.76476 4.2768,-5.04065 4.6962,-5.05753 0.48654,-0.0196 0.9368,2.20152 1.24394,6.13598 0.47753,6.11825 0.5044,6.19143 3.41826,9.31993 l 2.93694,3.15326 -2.68079,5.33194 -2.68088,5.33194 v 20.10112 20.10112 l 2.83334,-2.42581 c 4.85834,-4.15956 14.49347,-10.30417 17.96627,-11.45767 5.3338,-1.77158 10.40233,-1.08507 17.40013,2.35675 9.7712,4.80593 11.13359,7.53206 11.13359,22.27817 0,8.54492 -0.075,9.05282 -1.48165,10.03812 -1.2976,0.90887 -6.05494,1.0378 -38.294,1.0378 -23.8714,0 -36.95747,-0.23483 -37.22514,-0.668 z m 64.9924,-11.53347 c 3.23873,-0.60351 4.38273,-1.1062 4.5552,-2.00166 0.95333,-4.95029 -14.51134,-11.33105 -22.36887,-9.22947 -5.05653,1.3524 -16.8446,8.90245 -16.8446,10.78862 0,0.94396 2.56893,1.12718 16.66666,1.18874 8.12506,0.0355 15.42034,-0.26711 17.99161,-0.74623 z"
       id="path1038" />
  </g>
  <g
     inkscape:groupmode="layer"
     id="layer17"
     inkscape:label="ظ"
     style="display:none"
     transform="translate(-354,-284.66666)">
    <g
       id="g1686"
       transform="translate(-139.74065,-50.447524)">
      <path
         style="fill:#000000;stroke-width:0.666667"
         d="m 637.74065,457.02174 c -2.2,-1.29823 -5.14211,-3.10253 -6.53802,-4.00957 l -2.53801,-1.64917 2.46052,-4.46539 c 1.3533,-2.45596 2.69644,-4.72641 2.98476,-5.04546 0.68231,-0.75498 14.63075,6.96596 14.63075,8.09862 0,1.5905 -4.98696,9.42816 -6,9.42978 -0.55,6.6e-4 -2.8,-1.06058 -5,-2.35881 z"
         id="path1040" />
      <path
         style="fill:#000000;stroke-width:0.666667"
         d="m 585.07315,508.09757 c -0.64514,-1.04387 -3.66584,-10.13816 -3.66584,-11.03661 0,-0.57117 2.46448,-0.88679 8.5,-1.08856 6.8232,-0.22811 9.1247,-0.56505 11.66667,-1.70801 l 3.16667,-1.42385 0.0108,-25.20415 c 0.01,-23.14293 -0.10731,-25.81281 -1.43368,-32.64663 l -1.44451,-7.44247 3.93368,-5.02684 c 2.16352,-2.76476 4.27684,-5.04065 4.69624,-5.05753 0.48653,-0.0196 0.9368,2.20152 1.2439,6.13598 0.47755,6.11825 0.50439,6.19143 3.41828,9.31993 l 2.93696,3.15326 -2.68085,5.33194 -2.68085,5.33194 v 20.10112 20.10112 l 2.83334,-2.42581 c 4.85834,-4.15956 14.49346,-10.30417 17.9663,-11.45767 5.33374,-1.77158 10.40228,-1.08507 17.40006,2.35675 9.77126,4.80593 11.13366,7.53206 11.13366,22.27817 0,8.54492 -0.075,9.05282 -1.48167,10.03812 -1.2976,0.90887 -6.05494,1.0378 -38.29399,1.0378 -23.87143,0 -36.95745,-0.23483 -37.22517,-0.668 z m 64.99241,-11.53347 c 3.23877,-0.60351 4.38275,-1.1062 4.5552,-2.00166 0.95334,-4.95029 -14.51129,-11.33105 -22.36886,-9.22947 -5.05648,1.3524 -16.84458,8.90245 -16.84458,10.78862 0,0.94396 2.56892,1.12718 16.66666,1.18874 8.12509,0.0355 15.42034,-0.26711 17.99158,-0.74623 z"
         id="path1036" />
    </g>
  </g>
  <g
     inkscape:groupmode="layer"
     id="layer18"
     inkscape:label="ع"
     style="display:none"
     transform="translate(-354,-284.66666)">
    <path
       style="fill:#000000;stroke-width:0.666667"
       d="m 469.45492,466.1879 c -9.61878,-2.09122 -16.56982,-7.22345 -20.36014,-15.0327 -3.87604,-7.98587 -3.96585,-19.50343 -0.23008,-29.50796 2.50718,-6.71434 8.0858,-17.57983 11.00866,-21.44157 1.41986,-1.87596 2.58156,-3.50992 2.58156,-3.631 0,-0.12109 -1.425,-1.10931 -3.16666,-2.19605 -6.76619,-4.22185 -8.10823,-12.98105 -3.44584,-22.49017 2.46536,-5.0282 7.0439,-10.56592 9.99942,-12.09429 5.31776,-2.74992 13.49082,0.25147 17.60207,6.46399 2.19068,3.31034 2.27131,5.55746 0.17768,4.95238 -8.78582,-2.53922 -16.84547,-1.21656 -20.44113,3.3546 -1.95161,2.48106 -1.73804,4.33366 0.77446,6.718 3.05783,2.90184 5.96634,4.20541 9.38308,4.20541 3.69554,0 6.89666,-1.12425 15.1696,-5.32767 3.5992,-1.82872 6.70842,-3.05889 6.90938,-2.73372 0.20097,0.32517 -0.0778,3.097 -0.61938,6.15964 -0.54163,3.06263 -0.9903,5.79342 -0.99706,6.06842 -0.007,0.275 -0.40315,0.5 -0.88088,0.5 -1.61403,0 -12.09481,5.41561 -17.7312,9.16203 -12.21401,8.11847 -19.76536,18.49303 -21.44858,29.46755 -1.51926,9.90548 0.6962,17.11321 6.23276,20.27752 6.43837,3.67973 8.98267,4.09572 24.81562,4.05735 12.26645,-0.0297 15.96347,-0.27932 22.5909,-1.5252 4.35834,-0.8193 8.48334,-1.78886 9.16667,-2.15458 2.49471,-1.33513 1.29089,1.42136 -2.03591,4.66176 -6.83006,6.65268 -21.75542,11.93485 -35.055,12.40615 -4.03333,0.14293 -8.53333,-10e-4 -10,-0.31989 z"
       id="path1028" />
  </g>
  <g
     inkscape:groupmode="layer"
     id="layer19"
     inkscape:label="غ"
     style="display:none"
     transform="translate(-354,-284.66666)">
    <g
       id="g1690"
       transform="translate(129.71768,-64.415368)">
      <path
         style="fill:#000000;stroke-width:0.666667"
         d="m 325.74064,425.98766 c -2.93333,-1.49119 -5.43568,-2.80355 -5.56077,-2.91634 -0.33248,-0.29979 4.55141,-8.88795 5.32692,-9.36724 0.95362,-0.58937 11.88709,4.56404 11.89438,5.60633 0.009,1.29928 -4.8842,9.433 -5.66053,9.40906 -0.36667,-0.0113 -3.06667,-1.24062 -6,-2.73181 z"
         id="path1048" />
      <path
         style="fill:#000000;stroke-width:0.666667"
         d="m 339.74064,540.13159 c -6.55961,-1.42613 -12.61993,-4.79067 -16.87038,-9.36603 -4.83013,-5.19936 -7.42503,-15.87215 -6.14033,-25.25511 1.24441,-9.08864 7.33132,-23.30448 13.42683,-31.35804 1.42113,-1.87764 2.58388,-3.51296 2.58388,-3.63405 0,-0.12109 -1.425,-1.10931 -3.16667,-2.19605 -6.7741,-4.22679 -8.10705,-12.97073 -3.43398,-22.52632 3.13862,-6.41788 8.02352,-11.32383 12.15199,-12.20435 1.74003,-0.37111 4.13422,-0.45586 5.32042,-0.18833 4.90553,1.10638 11.79491,7.29308 11.79491,10.59191 0,1.33551 -0.24208,1.52256 -1.5,1.159 -8.78582,-2.53922 -16.84547,-1.21655 -20.44114,3.3546 -1.9516,2.48106 -1.73803,4.33367 0.77447,6.718 3.05783,2.90185 5.96634,4.20541 9.38307,4.20541 3.69554,0 6.89666,-1.12425 15.16961,-5.32766 3.59919,-1.82872 6.70274,-3.06807 6.89678,-2.75412 0.45246,0.7321 -1.43155,11.52931 -2.10677,12.07384 -0.28014,0.22593 -2.15936,1.13914 -4.17602,2.02936 -10.12058,4.46752 -21.9495,12.894 -27.21099,19.3841 -6.1734,7.61494 -9.46605,18.05281 -8.48275,26.89073 0.8289,7.45012 4.24387,11.15384 13.02707,14.12858 3.15304,1.06788 5.72117,1.23686 18.33333,1.2063 12.26646,-0.0297 15.96348,-0.27933 22.59091,-1.5252 4.35833,-0.81931 8.48333,-1.78887 9.16667,-2.15458 2.49471,-1.33514 1.29088,1.42135 -2.03592,4.66175 -6.83006,6.65269 -21.75542,11.93485 -35.05499,12.40615 -4.03333,0.14293 -8.53333,-10e-4 -10,-0.31989 z"
         id="path1026" />
    </g>
  </g>
  <g
     inkscape:groupmode="layer"
     id="layer20"
     inkscape:label="ف"
     style="display:none"
     transform="translate(-354,-284.66666)">
    <g
       id="g1694"
       transform="translate(260.51921,-55.849739)">
      <path
         style="fill:#000000;stroke-width:0.666667"
         d="m 255.07397,440.29515 c -3.66666,-2.06782 -6.878,-4.0785 -7.1363,-4.46818 -0.40023,-0.6038 3.31602,-8.2845 4.81437,-9.9503 0.56789,-0.63134 13.97299,6.80036 14.45225,8.01225 0.24742,0.62565 -4.79637,10.27306 -5.32639,10.18793 -0.0755,-0.0121 -3.13726,-1.71389 -6.80393,-3.7817 z"
         id="path1046" />
      <path
         style="fill:#000000;stroke-width:0.666667"
         d="m 192.07397,510.79584 c -5.21742,-0.75236 -11.82864,-2.58242 -14.79362,-4.09505 -6.42998,-3.28032 -10.34258,-16.40658 -7.43443,-24.94153 1.98377,-5.82202 7.10644,-12.76791 6.01837,-8.16036 -0.19482,0.825 -0.55888,3.78544 -0.80902,6.57875 -0.54303,6.064 0.70363,9.66921 4.49449,12.99759 5.13677,4.51008 22.95404,6.09648 55.19088,4.91405 19.17724,-0.70342 22.66667,-0.99812 22.66667,-1.91431 0,-0.24533 -2.00333,-1.31879 -4.45184,-2.38548 -10.91726,-4.75607 -13.50648,-11.25079 -8.58191,-21.52665 7.40317,-15.44783 17.05384,-20.42108 22.94465,-11.82402 5.74469,8.38384 8.96832,37.31164 5.05219,45.33672 -1.24686,2.55511 -1.44936,2.67377 -5.29643,3.1035 -2.2,0.24576 -7.15,0.81438 -11,1.2636 -8.08804,0.94374 -58.42263,1.45746 -64,0.65319 z m 75.33334,-25.49953 c 0,-0.80809 -1.34368,-4.23134 -2.98595,-7.60722 -2.81437,-5.78528 -5.41695,-8.92352 -7.40038,-8.92352 -1.2499,0 -7.61657,6.63905 -7.59873,7.92382 0.01,0.69402 3.02807,2.66174 8.5,5.54116 4.66678,2.45574 8.71006,4.48074 8.98506,4.5 0.275,0.0193 0.5,-0.62615 0.5,-1.43424 z"
         id="path1034" />
    </g>
  </g>
  <g
     inkscape:groupmode="layer"
     id="layer21"
     inkscape:label="ق"
     style="display:none"
     transform="translate(-354,-284.66666)">
    <g
       id="g1698"
       transform="translate(393.9968,-69.556272)">
      <path
         style="fill:#000000;stroke-width:0.666667"
         d="m 87.218865,444.22379 c -3.54803,-2.08536 -6.4571,-3.98506 -6.46459,-4.22156 -0.0294,-0.92842 5.02451,-9.22469 5.62305,-9.23049 0.35016,-0.003 3.23944,1.64383 6.4206,3.66049 3.18116,2.01667 5.92702,3.66667 6.1019,3.66667 0.17489,0 1.441495,-1.82025 2.814685,-4.04499 1.87076,-3.03088 2.772,-3.9394 3.59475,-3.6238 0.91079,0.34936 11.92621,6.76986 12.65758,7.37765 0.49595,0.41215 -5.33912,9.62365 -6.08894,9.61227 -0.44216,-0.007 -3.32001,-1.65671 -6.39522,-3.66666 -3.07522,-2.00996 -5.786825,-3.65447 -6.025805,-3.65447 -0.23898,0 -1.43929,1.65788 -2.66735,3.68417 -1.22806,2.0263 -2.43238,3.8075 -2.67626,3.95822 -0.24389,0.15073 -3.34636,-1.43215 -6.8944,-3.5175 z"
         id="path1044" />
      <path
         style="fill:#000000;stroke-width:0.666667"
         d="m 69.740645,533.16413 c -6.91391,-2.19232 -12.32089,-6.53095 -14.97699,-12.01771 -2.03081,-4.19509 -3.53819,-12.10512 -3.05809,-16.04752 1.17128,-9.61833 5.0772,-21.24717 7.92063,-23.58163 1.4497,-1.1902 1.40497,-0.51782 -0.25638,3.85324 -0.76194,2.00472 -1.61038,6.4437 -1.91134,10 -1.1308,13.36236 1.22499,19.87482 8.61551,23.81708 1.99604,1.06473 3.73066,1.23196 12,1.15693 18.1559,-0.16475 33.375905,-5.23742 37.053785,-12.34965 0.62072,-1.20036 0.93598,-3.24538 0.81326,-5.27564 l -0.20039,-3.31545 -7,-0.18567 c -7.47228,-0.19819 -11.722235,-1.4859 -14.230045,-4.31162 -1.74495,-1.96617 -3.03987,-5.96835 -3.07402,-9.50086 -0.0685,-7.09071 4.79702,-18.77384 9.701205,-23.29436 2.53641,-2.33799 3.30662,-2.67904 6.05023,-2.67904 2.92437,0 3.38454,0.24852 6.59198,3.56002 3.8312,3.95549 6.33312,9.50474 9.07496,20.12816 1.25756,4.87252 1.54162,7.70508 1.53554,15.31182 -0.007,8.65218 -0.13372,9.60094 -1.73759,13 -4.22657,8.95733 -16.75476,17.59471 -30.871145,21.28367 -6.12485,1.60058 -17.66673,1.8353 -22.04111,0.44823 z M 114.62313,485.7421 c 0.4315,-0.37179 -1.85941,-4.15624 -4.25648,-7.03145 -2.57894,-3.09334 -5.38205,-5.26662 -6.80247,-5.27402 -1.42704,-0.007 -3.48506,4.15789 -3.48771,7.05894 -0.003,3.36748 1.59321,5.00146 5.52149,5.6519 2.43559,0.40327 8.39745,0.13549 9.02517,-0.40537 z"
         id="path1032" />
    </g>
  </g>
  <g
     inkscape:groupmode="layer"
     id="layer28"
     inkscape:label="ك"
     style="display:none"
     transform="translate(-354,-284.66666)">
    <g
       id="g1702"
       transform="translate(-404.55768,-250.38856)">
      <path
         style="fill:#000000;stroke-width:0.666667"
         d="m 874.09331,678.12496 c -1.20994,-0.7652 -1.39807,-0.62993 4.64733,-3.34207 8.3304,-3.73733 10.05207,-5.35066 5.71007,-5.35066 -5.80114,0 -7.74674,-2.65407 -6.05634,-8.2618 1.74254,-5.78033 9.027,-14.61304 10.6846,-12.95544 0.22767,0.22766 -0.6752,2.57659 -2.00633,5.21985 -1.33113,2.64325 -2.26787,5.20299 -2.0816,5.68832 0.1862,0.48533 1.78107,1.07153 3.54413,1.30267 5.32607,0.69833 6.2064,1.28893 6.19894,4.1588 -0.009,3.6884 -2.73054,9.037 -5.45347,10.71986 -4.26747,2.63747 -12.93233,4.2466 -15.18733,2.82047 z"
         id="path1000" />
      <path
         style="fill:#000000;stroke-width:0.666667"
         d="m 876.74064,710.73109 c -20.9586,-2.26213 -28.88113,-8.4134 -27.7802,-21.5692 0.308,-3.68 0.99707,-5.9434 3.10493,-10.1986 2.92887,-5.91266 5.8966,-9.93546 6.69207,-9.07126 0.27347,0.29706 0.2264,2.1902 -0.10467,4.20686 -2.12506,12.94427 -1.4418,16.67074 3.5916,19.58834 7.07494,4.10106 28.92627,5.0004 42.48207,1.7484 5.63087,-1.3508 5.4042,-0.007 5.18687,-30.7424 -0.184,-26.02455 -0.2452,-27.14633 -1.82327,-33.44721 l -1.63287,-6.51954 5.1166,-5.11666 c 2.8142,-2.81416 5.353,-4.88037 5.6418,-4.59158 0.28874,0.2888 0.6902,3.01194 0.892,6.05144 0.3536,5.32482 0.47234,5.65222 3.25707,8.97826 l 2.89013,3.45192 -2.42913,5.46618 -2.4292,5.46619 0.007,29.0928 c 0.007,33.07266 0.40386,30.7968 -5.8008,33.19226 -4.41314,1.70374 -17.5862,3.96474 -25.27487,4.33807 -3.2554,0.15807 -8.46893,0.012 -11.5856,-0.32427 z"
         id="path996" />
    </g>
  </g>
  <g
     inkscape:groupmode="layer"
     id="layer22"
     inkscape:label="ل"
     style="display:inline"
     transform="translate(-354,-284.66666)">
    <path
       style="fill:#000000;stroke-width:0.666667"
       d="m 467.87613,469.50683 c -7.60627,-1.98814 -12.91127,-5.9972 -16.20127,-12.24354 -2.58233,-4.90266 -3.35433,-9.27746 -2.96907,-16.82553 0.40587,-7.95227 3.3618,-17.589 6.25074,-20.37827 l 1.7364,-1.67646 -0.57507,6 c -0.31627,3.3 -0.5594,9 -0.54027,12.66666 0.038,7.244 1.14807,10.56067 4.87187,14.55407 4.682,5.02107 14.38547,8.32153 20.85713,7.0942 6.13027,-1.1626 14.9074,-7.5384 17.65614,-12.8256 1.41066,-2.7134 0.91246,-69.25166 -0.57027,-76.156 l -1.00213,-4.66666 5.0606,-5.16667 c 2.78333,-2.84167 5.25386,-5.16667 5.49013,-5.16667 0.2362,0 0.63033,1.875 0.87573,4.16667 0.78507,7.33037 1.1516,8.41707 3.887,11.52464 l 2.6838,3.04897 -2.4278,5.46319 -2.42786,5.4632 -0.009,32 c -0.009,30.01826 -0.0877,32.173 -1.27746,34.79353 -1.74234,3.83767 -6.04454,8.33333 -11.35007,11.86047 -5.6762,3.77353 -9.4156,5.36306 -15.64287,6.64933 -6.22293,1.28533 -8.89973,1.25193 -14.3762,-0.17953 z"
       id="path992" />
  </g>
  <g
     inkscape:groupmode="layer"
     id="layer23"
     inkscape:label="م"
     style="display:none"
     transform="translate(-354,-284.66666)">
    <path
       style="fill:#000000;stroke-width:0.666667"
       d="m 464.45387,456.84962 c -0.23285,-1.81646 -0.70421,-5.10266 -1.04746,-7.30266 -0.34326,-2.2 -0.95565,-6.4 -1.36088,-9.33333 -0.40522,-2.93334 -1.79403,-9.98334 -3.08625,-15.66667 -3.48512,-15.32807 -3.68374,-16.5832 -3.42901,-21.6696 0.2607,-5.20573 1.85019,-8.25213 5.21287,-9.99107 1.685,-0.87133 10.92509,-2.65073 21.48285,-4.13706 l 3.80457,-0.5356 -4.47124,-4.88394 -4.47124,-4.88393 -6.50102,3.4358 c -7.1188,3.76227 -7.75276,3.67073 -6.87786,-0.99293 0.49476,-2.63727 3.4657,-6.30087 9.60292,-11.84167 6.95317,-6.27747 8.36554,-5.7094 19.12551,7.6924 6.55596,8.16567 8.7158,10.1582 15.35913,14.16947 1.07747,0.65053 1.04889,1.01413 -0.44533,5.66666 l -1.59668,4.97147 -11,-0.2094 c -13.08484,-0.24913 -26.46795,0.72767 -29.17921,2.12973 l -1.93287,0.99947 1.57715,7.2068 c 3.06414,14.00153 4.2495,21.28813 4.65306,28.60307 0.35416,6.41933 0.21958,8.0044 -1.0188,11.99999 -0.78477,2.532 -2.00061,5.33987 -2.70186,6.23967 l -1.275,1.63593 z"
       id="path984" />
  </g>
  <g
     inkscape:groupmode="layer"
     id="layer24"
     inkscape:label="ن"
     style="display:none"
     transform="translate(-354,-284.66666)">
    <g
       id="g1706"
       transform="translate(-6.2076046,-276.83074)">
      <path
         style="fill:#000000;stroke-width:0.666667"
         d="m 484.40731,656.00869 c -3.66667,-2.17204 -6.76386,-4.23191 -6.88265,-4.57744 -0.27581,-0.80227 4.70405,-9.98862 5.41799,-9.99456 0.58571,-0.005 13.139,7.12079 13.992,7.94233 0.47855,0.4609 -4.36056,9.67474 -5.41497,10.31027 -0.24514,0.14774 -3.44571,-1.50846 -7.11237,-3.6806 z"
         id="path1002" />
      <path
         style="fill:#000000;stroke-width:0.666667"
         d="m 474.40731,737.33143 c -8.13608,-0.58874 -13.12807,-2.51434 -17.1219,-6.6046 -3.68003,-3.76887 -4.53594,-6.3226 -4.54105,-13.5488 -0.003,-4.10014 0.43339,-6.52727 1.98634,-11.0502 2.04777,-5.96407 8.54483,-18.53634 10.35585,-20.0394 1.77397,-1.47227 1.80003,-0.2332 0.067,3.18673 -0.92219,1.81987 -2.48598,6.42467 -3.47508,10.23293 -1.60592,6.18314 -1.72363,7.36667 -1.09997,11.05934 0.97419,5.7682 3.52463,9.34773 8.36871,11.7456 6.70276,3.31786 18.88212,3.5 28.29507,0.42306 6.10196,-1.99466 14.57407,-6.43273 16.18202,-8.47693 3.27548,-4.16407 0.50313,-17.80367 -5.15453,-25.35953 -0.90572,-1.2096 -1.50101,-2.5596 -1.32286,-3 0.71934,-1.77827 9.27969,-11.1184 9.86092,-10.7592 1.07512,0.66446 3.8976,6.76546 4.98736,10.7806 1.47477,5.4336 2.33949,17.64006 1.61486,22.79546 -1.35706,9.65494 -7.98585,17.87314 -18.69425,23.1766 -9.54707,4.72834 -18.33325,6.3048 -30.30851,5.43834 z"
         id="path988" />
    </g>
  </g>
  <g
     inkscape:groupmode="layer"
     id="layer25"
     inkscape:label="ه"
     style="display:none"
     transform="translate(-354,-284.66666)">
    <path
       style="fill:#000000;stroke-width:0.666667"
       d="m 478.19958,438.05687 c -1.83334,-0.3184 -5.57723,-1.417 -8.31977,-2.44133 -7.4636,-2.78773 -9.15554,-6.0608 -7.29844,-14.1188 0.90211,-3.91433 4.33643,-11.6956 6.65701,-15.08313 1.2868,-1.8784 1.67166,-3.0048 1.25282,-3.66667 -1.74648,-2.75993 0.62866,-7.802 6.20751,-13.17773 l 2.99823,-2.88907 0.47364,2.52473 c 0.79983,4.2634 2.91278,7.507 6.80304,10.44314 7.83798,5.9158 11.65105,9.31086 13.36351,11.89853 1.54228,2.33053 1.77473,3.36527 1.77473,7.89987 0,4.538 -0.28191,5.79073 -2.16296,9.61166 -4.0459,8.2184 -10.60828,10.9336 -21.74932,8.9988 z m 13.04382,-13.28873 c 0.70923,-0.37953 1.28951,-1.21587 1.28951,-1.8584 0,-2.32733 -13.787,-14.11813 -16.50841,-14.11813 -1.29422,0 -1.92891,0.78006 -3.55798,4.37293 -3.13322,6.91013 -3.16432,7.8364 -0.32207,9.593 1.32395,0.81827 3.22797,1.73487 4.23115,2.03693 2.65636,0.7998 13.35952,0.78087 14.8678,-0.0267 z"
       id="path998" />
  </g>
  <g
     inkscape:groupmode="layer"
     id="layer26"
     inkscape:label="و"
     style="display:none"
     transform="translate(-354,-284.66666)">
    <path
       style="fill:#000000;stroke-width:0.666667"
       d="m 470.41566,446.40195 c -5.08476,-1.4544 -8.61692,-3.72266 -11.6896,-7.5068 -2.35284,-2.89766 -6.49157,-10.512 -6.49157,-11.94306 0,-0.42387 1.32621,0.45186 2.94713,1.94593 5.51652,5.085 17.33004,9.91267 22.24376,9.09013 10.67998,-1.78773 19.71672,-7.95726 24.15274,-16.48933 1.92926,-3.71073 1.6536,-4.09807 -3.33699,-4.68913 -9.5114,-1.12647 -16.71635,-11.22247 -14.70427,-20.6044 0.893,-4.16394 4.4129,-10.654 7.47896,-13.7898 5.10841,-5.22467 8.72508,-5.98634 12.7341,-2.6818 5.59014,4.60786 8.062,12.30293 8.01493,24.95093 -0.0651,17.4912 -5.65168,30.52687 -16.47361,38.4394 -5.90312,4.31613 -16.40695,5.70027 -24.87558,3.27793 z m 33.81883,-44.1166 c 0,-2.69613 -1.74079,-6.30006 -3.84114,-7.9522 -3.27323,-2.57473 -7.53042,-1.0512 -8.56341,3.06454 -0.59826,2.38366 1.95259,4.86106 6.17294,5.9952 5.35312,1.43853 6.23161,1.2824 6.23161,-1.10754 z"
       id="path990" />
  </g>
  <g
     inkscape:groupmode="layer"
     id="layer27"
     inkscape:label="ي"
     style="display:none"
     transform="translate(-354,-284.66666)">
    <g
       id="g1894"
       transform="translate(393.34302,-279.16481)">
      <path
         style="fill:#000000;stroke-width:0.666667"
         d="m 63.740645,717.87429 c -6.18878,-2.06333 -11.82459,-6.42113 -14.30988,-11.06493 -3.12967,-5.8478 -3.66425,-15.14567 -1.3824,-24.0438 1.69461,-6.6082 7.50373,-18.90487 11.15221,-23.60687 2.72976,-3.518 7.30075,-7.52134 7.90169,-6.9204 0.20221,0.20221 -0.58853,1.78447 -1.75721,3.51614 -4.11819,6.102 -9.53639,21.45613 -10.34025,29.30226 -1.66186,16.2208 10.7393,22.84114 33.96229,18.13067 13.303005,-2.69833 25.773545,-7.764 25.773545,-10.4696 0,-0.7448 -10.69006,-3.11493 -17.999995,-3.99087 -10.55097,-1.2642 -12.32774,-2.64266 -12.1592,-9.43346 0.33714,-13.58407 22.527905,-34.11222 37.825865,-34.99184 6.1361,-0.35282 7.92164,0.54783 8.21944,4.14596 0.26773,3.23483 -0.80176,7.01621 -2.94438,10.41034 l -1.60797,2.54714 -2.94879,-2.07847 c -2.85301,-2.011 -3.05334,-2.05253 -6.16688,-1.27907 -4.16886,1.03574 -16.02197,6.68227 -19.952525,9.505 -1.68503,1.21007 -3.48704,3.01887 -4.00448,4.01947 -0.89578,1.73227 -0.84951,1.86647 0.9673,2.806 1.04944,0.54267 5.32738,1.597 9.506515,2.343 15.665,2.79613 18.98048,3.81847 21.53408,6.64013 1.12817,1.2466 1.22009,2.095 0.84527,7.80107 -0.3168,4.82293 -0.76763,6.96387 -1.82756,8.67887 -3.33135,5.39026 -14.27666,10.55873 -34.620015,16.34793 -8.35997,2.379 -21.08055,3.21427 -25.66667,1.68533 z"
         id="path994" />
      <path
         style="fill:#000000;stroke-width:0.666667"
         d="m 76.211205,735.67663 -6.19612,-3.6932 2.42377,-4.44227 c 1.33308,-2.44327 2.66093,-4.69187 2.95079,-4.99693 0.28986,-0.30507 3.12286,1.11993 6.29556,3.16666 3.1727,2.04674 6.13988,3.72134 6.59373,3.72134 0.45385,0 1.41839,-1.10367 2.14345,-2.45254 0.72504,-1.34893 1.84922,-3.1288 2.49817,-3.95533 l 1.17991,-1.5028 5.82009,3.38007 c 8.413335,4.88606 8.104395,4.25786 4.816025,9.793 -1.548,2.60566 -2.92687,4.7376 -3.06414,4.7376 -0.13728,0 -2.904395,-1.65 -6.149175,-3.66667 -3.24476,-2.01667 -6.18488,-3.66667 -6.53357,-3.66667 -0.3487,0 -1.634,1.65 -2.85623,3.66667 -1.22223,2.01667 -2.56062,3.6526 -2.97419,3.6354 -0.41358,-0.0173 -3.54021,-1.69313 -6.94807,-3.72433 z"
         id="path986" />
    </g>
  </g>
</svg>
